<mxfile host="Electron" agent="Mozilla/5.0 (Windows NT 10.0; Win64; x64) AppleWebKit/537.36 (KHTML, like Gecko) draw.io/28.0.6 Chrome/138.0.7204.100 Electron/37.2.3 Safari/537.36" version="28.0.6">
  <diagram name="PÃ¡gina-1" id="j73hZuTLXUR3FBSmfRx7">
    <mxGraphModel dx="1410" dy="825" grid="1" gridSize="10" guides="1" tooltips="1" connect="1" arrows="1" fold="1" page="1" pageScale="1" pageWidth="850" pageHeight="1100" math="0" shadow="0">
      <root>
        <mxCell id="0" />
        <mxCell id="1" parent="0" />
        <mxCell id="ro1BlrJvYzHVakCWVsMG-19" value="FatoGastoParlamentar" style="swimlane;childLayout=stackLayout;horizontal=1;startSize=50;horizontalStack=0;rounded=1;fontSize=14;fontStyle=0;strokeWidth=2;resizeParent=0;resizeLast=1;shadow=0;dashed=0;align=center;arcSize=4;whiteSpace=wrap;html=1;labelBackgroundColor=none;fillColor=#FAE5C7;strokeColor=#0F8B8D;fontColor=#143642;" parent="1" vertex="1">
          <mxGeometry x="1080" y="490" width="250" height="190" as="geometry" />
        </mxCell>
        <mxCell id="ro1BlrJvYzHVakCWVsMG-20" value="&lt;code style=&quot;color: rgb(0, 0, 0);&quot;&gt;ID_Gasto&lt;/code&gt;&lt;span style=&quot;color: rgb(0, 0, 0);&quot;&gt;&amp;nbsp;&lt;/span&gt;&lt;code style=&quot;color: rgb(0, 0, 0);&quot;&gt;INT PRIMARY KEY&lt;/code&gt;&lt;div style=&quot;color: rgb(0, 0, 0);&quot;&gt;&lt;code&gt;&lt;code&gt;ID_Deputado_FK&lt;/code&gt;&amp;nbsp;&lt;code&gt;INT FOREIGN KEY&lt;/code&gt;&lt;/code&gt;&lt;/div&gt;&lt;div style=&quot;color: rgb(0, 0, 0);&quot;&gt;&lt;code&gt;&lt;code&gt;&lt;code&gt;ID_Fornecedor_FK&lt;/code&gt;&amp;nbsp;&lt;code&gt;INT FOREIGN KEY&lt;/code&gt;&lt;/code&gt;&lt;/code&gt;&lt;/div&gt;&lt;div style=&quot;color: rgb(0, 0, 0);&quot;&gt;&lt;code&gt;&lt;code&gt;&lt;code&gt;&lt;code&gt;ID_Categoria_FK&lt;/code&gt;&amp;nbsp;&lt;code&gt;INT FOREIGN KEY&lt;/code&gt;&lt;/code&gt;&lt;/code&gt;&lt;/code&gt;&lt;/div&gt;&lt;div style=&quot;color: rgb(0, 0, 0);&quot;&gt;&lt;code&gt;&lt;code&gt;&lt;code&gt;&lt;code&gt;&lt;code&gt;ID_Tempo_FK&lt;/code&gt;&amp;nbsp;&lt;code&gt;INT FOREIGN KEY&lt;/code&gt;&lt;/code&gt;&lt;/code&gt;&lt;/code&gt;&lt;/code&gt;&lt;/div&gt;&lt;div style=&quot;color: rgb(0, 0, 0);&quot;&gt;&lt;code&gt;&lt;code&gt;&lt;code&gt;&lt;code&gt;&lt;code&gt;&lt;code&gt;Valor&lt;/code&gt;&amp;nbsp;&lt;code&gt;DECIMAL(18,2)&lt;/code&gt;&lt;/code&gt;&lt;/code&gt;&lt;/code&gt;&lt;/code&gt;&lt;/code&gt;&lt;/div&gt;&lt;div style=&quot;color: rgb(0, 0, 0);&quot;&gt;&lt;code&gt;&lt;code&gt;&lt;code&gt;&lt;code&gt;&lt;code&gt;&lt;code&gt;&lt;code&gt;ID_Fonte_Origem&lt;/code&gt;&amp;nbsp;&lt;code&gt;INT&lt;/code&gt;&lt;/code&gt;&lt;/code&gt;&lt;/code&gt;&lt;/code&gt;&lt;/code&gt;&lt;/code&gt;&lt;/div&gt;" style="align=left;strokeColor=none;fillColor=none;spacingLeft=4;spacingRight=4;fontSize=12;verticalAlign=top;resizable=0;rotatable=0;part=1;html=1;whiteSpace=wrap;labelBackgroundColor=none;fontColor=#143642;" parent="ro1BlrJvYzHVakCWVsMG-19" vertex="1">
          <mxGeometry y="50" width="250" height="140" as="geometry" />
        </mxCell>
        <mxCell id="ro1BlrJvYzHVakCWVsMG-21" value="FatoVotacaoPresenca" style="swimlane;childLayout=stackLayout;horizontal=1;startSize=50;horizontalStack=0;rounded=1;fontSize=14;fontStyle=0;strokeWidth=2;resizeParent=0;resizeLast=1;shadow=0;dashed=0;align=center;arcSize=4;whiteSpace=wrap;html=1;labelBackgroundColor=none;fillColor=#FAE5C7;strokeColor=#0F8B8D;fontColor=#143642;" parent="1" vertex="1">
          <mxGeometry x="1130" y="700" width="180" height="210" as="geometry" />
        </mxCell>
        <mxCell id="ro1BlrJvYzHVakCWVsMG-22" value="&lt;code style=&quot;color: rgb(0, 0, 0);&quot;&gt;ID_Registro&lt;/code&gt;&lt;span style=&quot;color: rgb(0, 0, 0);&quot;&gt;&amp;nbsp;&lt;/span&gt;&lt;code style=&quot;color: rgb(0, 0, 0);&quot;&gt;INT PRIMARY KEY&lt;/code&gt;&lt;div style=&quot;color: rgb(0, 0, 0);&quot;&gt;&lt;code&gt;&lt;code&gt;ID_Deputado_FK&lt;/code&gt;&amp;nbsp;&lt;code&gt;INT FOREIGN KEY&lt;/code&gt;&lt;/code&gt;&lt;/div&gt;&lt;div style=&quot;color: rgb(0, 0, 0);&quot;&gt;&lt;code&gt;&lt;code&gt;&lt;code&gt;ID_Tempo_FK&lt;/code&gt;&amp;nbsp;&lt;code&gt;INT FOREIGN KEY&lt;/code&gt;&lt;/code&gt;&lt;/code&gt;&lt;/div&gt;&lt;div style=&quot;color: rgb(0, 0, 0);&quot;&gt;&lt;code&gt;&lt;code&gt;&lt;code&gt;&lt;code&gt;ID_Votacao_FK&lt;/code&gt;&amp;nbsp;&lt;code&gt;INT FOREIGN KEY&lt;/code&gt;&lt;/code&gt;&lt;/code&gt;&lt;/code&gt;&lt;/div&gt;&lt;div style=&quot;color: rgb(0, 0, 0);&quot;&gt;&lt;code&gt;&lt;code&gt;&lt;code&gt;&lt;code&gt;&lt;code&gt;Presenca&lt;/code&gt;&amp;nbsp;&lt;code&gt;VARCHAR(10)&lt;/code&gt;&lt;/code&gt;&lt;/code&gt;&lt;/code&gt;&lt;/code&gt;&lt;/div&gt;&lt;div style=&quot;color: rgb(0, 0, 0);&quot;&gt;&lt;code&gt;&lt;code&gt;&lt;code&gt;&lt;code&gt;&lt;code&gt;&lt;code&gt;Voto&lt;/code&gt;&amp;nbsp;&lt;code&gt;VARCHAR(50)&lt;/code&gt;&lt;/code&gt;&lt;/code&gt;&lt;/code&gt;&lt;/code&gt;&lt;/code&gt;&lt;/div&gt;" style="align=left;strokeColor=none;fillColor=none;spacingLeft=4;spacingRight=4;fontSize=12;verticalAlign=top;resizable=0;rotatable=0;part=1;html=1;whiteSpace=wrap;labelBackgroundColor=none;fontColor=#143642;" parent="ro1BlrJvYzHVakCWVsMG-21" vertex="1">
          <mxGeometry y="50" width="180" height="160" as="geometry" />
        </mxCell>
        <mxCell id="ro1BlrJvYzHVakCWVsMG-23" value="BridgeDeputadoLegislaturaPartido" style="swimlane;childLayout=stackLayout;horizontal=1;startSize=50;horizontalStack=0;rounded=1;fontSize=14;fontStyle=0;strokeWidth=2;resizeParent=0;resizeLast=1;shadow=0;dashed=0;align=center;arcSize=4;whiteSpace=wrap;html=1;labelBackgroundColor=none;fillColor=#FAE5C7;strokeColor=#0F8B8D;fontColor=#143642;" parent="1" vertex="1">
          <mxGeometry x="1390" y="320" width="230" height="120" as="geometry" />
        </mxCell>
        <mxCell id="ro1BlrJvYzHVakCWVsMG-24" value="&lt;code style=&quot;color: rgb(0, 0, 0);&quot;&gt;ID_Registro&lt;/code&gt;&lt;span style=&quot;color: rgb(0, 0, 0);&quot;&gt;&amp;nbsp;&lt;/span&gt;&lt;code style=&quot;color: rgb(0, 0, 0);&quot;&gt;INT PRIMARY KEY&lt;/code&gt;&lt;div style=&quot;color: rgb(0, 0, 0);&quot;&gt;&lt;code&gt;&lt;code&gt;ID_Deputado_FK&lt;/code&gt;&amp;nbsp;&lt;code&gt;INT FOREIGN KEY&lt;/code&gt;&lt;/code&gt;&lt;/div&gt;&lt;div style=&quot;color: rgb(0, 0, 0);&quot;&gt;&lt;code&gt;&lt;code&gt;&lt;code&gt;ID_Partido_FK&lt;/code&gt;&amp;nbsp;&lt;code&gt;INT FOREIGN KEY&lt;/code&gt;&lt;/code&gt;&lt;/code&gt;&lt;/div&gt;&lt;div style=&quot;color: rgb(0, 0, 0);&quot;&gt;&lt;code&gt;&lt;code&gt;&lt;code&gt;&lt;code&gt;ID_Legislatura_FK&lt;/code&gt;&amp;nbsp;&lt;code&gt;INT FOREIGN KEY&lt;/code&gt;&lt;/code&gt;&lt;/code&gt;&lt;/code&gt;&lt;/div&gt;" style="align=left;strokeColor=none;fillColor=none;spacingLeft=4;spacingRight=4;fontSize=12;verticalAlign=top;resizable=0;rotatable=0;part=1;html=1;whiteSpace=wrap;labelBackgroundColor=none;fontColor=#143642;" parent="ro1BlrJvYzHVakCWVsMG-23" vertex="1">
          <mxGeometry y="50" width="230" height="70" as="geometry" />
        </mxCell>
        <mxCell id="ro1BlrJvYzHVakCWVsMG-29" value="DimTempo" style="swimlane;childLayout=stackLayout;horizontal=1;startSize=50;horizontalStack=0;rounded=1;fontSize=14;fontStyle=0;strokeWidth=2;resizeParent=0;resizeLast=1;shadow=0;dashed=0;align=center;arcSize=4;whiteSpace=wrap;html=1;labelBackgroundColor=none;fillColor=#FAE5C7;strokeColor=#0F8B8D;fontColor=#143642;" parent="1" vertex="1">
          <mxGeometry x="1410" y="640" width="150" height="160" as="geometry" />
        </mxCell>
        <mxCell id="ro1BlrJvYzHVakCWVsMG-30" value="&lt;code style=&quot;color: rgb(0, 0, 0);&quot;&gt;ID_Tempo&lt;/code&gt;&lt;span style=&quot;color: rgb(0, 0, 0);&quot;&gt;&amp;nbsp;&lt;/span&gt;&lt;code style=&quot;color: rgb(0, 0, 0);&quot;&gt;INT PRIMARY KEY&lt;/code&gt;&lt;div style=&quot;color: rgb(0, 0, 0);&quot;&gt;&lt;code&gt;&lt;code&gt;Dia&lt;/code&gt;&amp;nbsp;&lt;code&gt;INT&lt;/code&gt;&lt;/code&gt;&lt;/div&gt;&lt;div style=&quot;color: rgb(0, 0, 0);&quot;&gt;&lt;code&gt;&lt;code&gt;&lt;code&gt;Mes&lt;/code&gt;&amp;nbsp;&lt;code&gt;INT&lt;/code&gt;&lt;/code&gt;&lt;/code&gt;&lt;/div&gt;&lt;div style=&quot;color: rgb(0, 0, 0);&quot;&gt;&lt;code&gt;&lt;code&gt;&lt;code&gt;&lt;code&gt;Ano&lt;/code&gt;&amp;nbsp;&lt;code&gt;INT&lt;/code&gt;&lt;/code&gt;&lt;/code&gt;&lt;/code&gt;&lt;/div&gt;&lt;div style=&quot;color: rgb(0, 0, 0);&quot;&gt;&lt;code&gt;&lt;code&gt;&lt;code&gt;&lt;code&gt;&lt;code&gt;Trimestre&lt;/code&gt;&amp;nbsp;&lt;code&gt;INT&lt;/code&gt;&lt;/code&gt;&lt;/code&gt;&lt;/code&gt;&lt;/code&gt;&lt;/div&gt;&lt;div style=&quot;color: rgb(0, 0, 0);&quot;&gt;&lt;code&gt;&lt;code&gt;&lt;code&gt;&lt;code&gt;&lt;code&gt;&lt;code&gt;AnoEleitoral&lt;/code&gt;&amp;nbsp;&lt;code&gt;BIT&lt;/code&gt;&lt;/code&gt;&lt;/code&gt;&lt;/code&gt;&lt;/code&gt;&lt;/code&gt;&lt;/div&gt;" style="align=left;strokeColor=none;fillColor=none;spacingLeft=4;spacingRight=4;fontSize=12;verticalAlign=top;resizable=0;rotatable=0;part=1;html=1;whiteSpace=wrap;labelBackgroundColor=none;fontColor=#143642;" parent="ro1BlrJvYzHVakCWVsMG-29" vertex="1">
          <mxGeometry y="50" width="150" height="110" as="geometry" />
        </mxCell>
        <mxCell id="ro1BlrJvYzHVakCWVsMG-31" value="DimFornecedor" style="swimlane;childLayout=stackLayout;horizontal=1;startSize=50;horizontalStack=0;rounded=1;fontSize=14;fontStyle=0;strokeWidth=2;resizeParent=0;resizeLast=1;shadow=0;dashed=0;align=center;arcSize=4;whiteSpace=wrap;html=1;labelBackgroundColor=none;fillColor=#FAE5C7;strokeColor=#0F8B8D;fontColor=#143642;" parent="1" vertex="1">
          <mxGeometry x="1125" y="280" width="160" height="160" as="geometry" />
        </mxCell>
        <mxCell id="ro1BlrJvYzHVakCWVsMG-32" value="&lt;div&gt;&lt;div&gt;&lt;code style=&quot;color: rgb(0, 0, 0);&quot;&gt;ID_Fornecedor&lt;/code&gt;&lt;span style=&quot;color: rgb(0, 0, 0);&quot;&gt;&amp;nbsp;&lt;/span&gt;&lt;code style=&quot;color: rgb(0, 0, 0);&quot;&gt;INT PRIMARY KEY&lt;/code&gt;&lt;div style=&quot;color: rgb(0, 0, 0);&quot;&gt;&lt;code&gt;ID_Setor_FK&lt;/code&gt;&amp;nbsp;&lt;code&gt;INT FOREIGN KEY&lt;/code&gt;&lt;font face=&quot;monospace&quot;&gt;&lt;br&gt;&lt;/font&gt;&lt;div&gt;&lt;code&gt;&lt;code&gt;Nome&lt;/code&gt;&amp;nbsp;&lt;code&gt;VARCHAR(255)&lt;/code&gt;&lt;/code&gt;&lt;/div&gt;&lt;div&gt;&lt;code&gt;&lt;code&gt;&lt;code&gt;CNPJ_CPF&lt;/code&gt;&amp;nbsp;&lt;code&gt;VARCHAR(14)&lt;/code&gt;&lt;/code&gt;&lt;/code&gt;&lt;/div&gt;&lt;/div&gt;&lt;div style=&quot;color: rgb(0, 0, 0);&quot;&gt;&lt;code&gt;&lt;code&gt;&lt;code&gt;&lt;code&gt;UF&lt;/code&gt;&amp;nbsp;&lt;code&gt;CHAR(2)&lt;/code&gt;&lt;/code&gt;&lt;/code&gt;&lt;/code&gt;&lt;/div&gt;&lt;/div&gt;&lt;/div&gt;" style="align=left;strokeColor=none;fillColor=none;spacingLeft=4;spacingRight=4;fontSize=12;verticalAlign=top;resizable=0;rotatable=0;part=1;html=1;whiteSpace=wrap;labelBackgroundColor=none;fontColor=#143642;" parent="ro1BlrJvYzHVakCWVsMG-31" vertex="1">
          <mxGeometry y="50" width="160" height="110" as="geometry" />
        </mxCell>
        <mxCell id="ro1BlrJvYzHVakCWVsMG-37" value="DimSetor" style="swimlane;childLayout=stackLayout;horizontal=1;startSize=50;horizontalStack=0;rounded=1;fontSize=14;fontStyle=0;strokeWidth=2;resizeParent=0;resizeLast=1;shadow=0;dashed=0;align=center;arcSize=4;whiteSpace=wrap;html=1;labelBackgroundColor=none;fillColor=#FAE5C7;strokeColor=#0F8B8D;fontColor=#143642;" parent="1" vertex="1">
          <mxGeometry x="840" y="280" width="180" height="110" as="geometry" />
        </mxCell>
        <mxCell id="ro1BlrJvYzHVakCWVsMG-38" value="&lt;div&gt;&lt;div&gt;&lt;code style=&quot;color: rgb(0, 0, 0);&quot;&gt;ID_Setor&lt;/code&gt;&lt;span style=&quot;color: rgb(0, 0, 0);&quot;&gt;&amp;nbsp;&lt;/span&gt;&lt;code style=&quot;color: rgb(0, 0, 0);&quot;&gt;INT PRIMARY KEY&lt;/code&gt;&lt;div style=&quot;color: rgb(0, 0, 0);&quot;&gt;&lt;code&gt;&lt;code&gt;DescricaoCNAE&lt;/code&gt;&amp;nbsp;&lt;code&gt;VARCHAR(255)&lt;/code&gt;&lt;/code&gt;&lt;/div&gt;&lt;div style=&quot;color: rgb(0, 0, 0);&quot;&gt;&lt;code&gt;&lt;code&gt;&lt;code&gt;SubSetor&lt;/code&gt;&amp;nbsp;&lt;code&gt;VARCHAR(255)&lt;/code&gt;&lt;/code&gt;&lt;/code&gt;&lt;/div&gt;&lt;/div&gt;&lt;/div&gt;" style="align=left;strokeColor=none;fillColor=none;spacingLeft=4;spacingRight=4;fontSize=12;verticalAlign=top;resizable=0;rotatable=0;part=1;html=1;whiteSpace=wrap;labelBackgroundColor=none;fontColor=#143642;" parent="ro1BlrJvYzHVakCWVsMG-37" vertex="1">
          <mxGeometry y="50" width="180" height="60" as="geometry" />
        </mxCell>
        <mxCell id="ro1BlrJvYzHVakCWVsMG-39" value="DimCategoriaDespesa" style="swimlane;childLayout=stackLayout;horizontal=1;startSize=50;horizontalStack=0;rounded=1;fontSize=14;fontStyle=0;strokeWidth=2;resizeParent=0;resizeLast=1;shadow=0;dashed=0;align=center;arcSize=4;whiteSpace=wrap;html=1;labelBackgroundColor=none;fillColor=#FAE5C7;strokeColor=#0F8B8D;fontColor=#143642;" parent="1" vertex="1">
          <mxGeometry x="800" y="490" width="180" height="110" as="geometry" />
        </mxCell>
        <mxCell id="ro1BlrJvYzHVakCWVsMG-40" value="&lt;code style=&quot;color: rgb(0, 0, 0);&quot;&gt;ID_Categoria&lt;/code&gt;&lt;span style=&quot;color: rgb(0, 0, 0);&quot;&gt;&amp;nbsp;&lt;/span&gt;&lt;code style=&quot;color: rgb(0, 0, 0);&quot;&gt;INT PRIMARY KEY&lt;/code&gt;&lt;div style=&quot;color: rgb(0, 0, 0);&quot;&gt;&lt;code&gt;&lt;code&gt;NomeCategoria&lt;/code&gt;&amp;nbsp;&lt;code&gt;VARCHAR(100)&lt;/code&gt;&lt;/code&gt;&lt;/div&gt;" style="align=left;strokeColor=none;fillColor=none;spacingLeft=4;spacingRight=4;fontSize=12;verticalAlign=top;resizable=0;rotatable=0;part=1;html=1;whiteSpace=wrap;labelBackgroundColor=none;fontColor=#143642;" parent="ro1BlrJvYzHVakCWVsMG-39" vertex="1">
          <mxGeometry y="50" width="180" height="60" as="geometry" />
        </mxCell>
        <mxCell id="ro1BlrJvYzHVakCWVsMG-41" value="DimDeputado" style="swimlane;childLayout=stackLayout;horizontal=1;startSize=50;horizontalStack=0;rounded=1;fontSize=14;fontStyle=0;strokeWidth=2;resizeParent=0;resizeLast=1;shadow=0;dashed=0;align=center;arcSize=4;whiteSpace=wrap;html=1;labelBackgroundColor=none;fillColor=#FAE5C7;strokeColor=#0F8B8D;fontColor=#143642;" parent="1" vertex="1">
          <mxGeometry x="1580" y="510" width="160" height="125" as="geometry" />
        </mxCell>
        <mxCell id="ro1BlrJvYzHVakCWVsMG-42" value="&lt;code style=&quot;color: rgb(0, 0, 0);&quot;&gt;ID_Deputado&lt;/code&gt;&lt;span style=&quot;color: rgb(0, 0, 0);&quot;&gt;&amp;nbsp;&lt;/span&gt;&lt;code style=&quot;color: rgb(0, 0, 0);&quot;&gt;INT PRIMARY KEY&lt;/code&gt;&lt;div style=&quot;color: rgb(0, 0, 0);&quot;&gt;&lt;code&gt;&lt;code&gt;Nome&lt;/code&gt;&amp;nbsp;&lt;code&gt;VARCHAR(255)&lt;/code&gt;&lt;/code&gt;&lt;/div&gt;&lt;div style=&quot;color: rgb(0, 0, 0);&quot;&gt;&lt;code&gt;&lt;code&gt;&lt;code&gt;UF&lt;/code&gt;&amp;nbsp;&lt;code&gt;CHAR(2)&lt;/code&gt;&lt;/code&gt;&lt;/code&gt;&lt;/div&gt;" style="align=left;strokeColor=none;fillColor=none;spacingLeft=4;spacingRight=4;fontSize=12;verticalAlign=top;resizable=0;rotatable=0;part=1;html=1;whiteSpace=wrap;labelBackgroundColor=none;fontColor=#143642;" parent="ro1BlrJvYzHVakCWVsMG-41" vertex="1">
          <mxGeometry y="50" width="160" height="75" as="geometry" />
        </mxCell>
        <mxCell id="ro1BlrJvYzHVakCWVsMG-43" value="DimPartido" style="swimlane;childLayout=stackLayout;horizontal=1;startSize=50;horizontalStack=0;rounded=1;fontSize=14;fontStyle=0;strokeWidth=2;resizeParent=0;resizeLast=1;shadow=0;dashed=0;align=center;arcSize=4;whiteSpace=wrap;html=1;labelBackgroundColor=none;fillColor=#FAE5C7;strokeColor=#0F8B8D;fontColor=#143642;" parent="1" vertex="1">
          <mxGeometry x="1590" y="100" width="160" height="120" as="geometry" />
        </mxCell>
        <mxCell id="ro1BlrJvYzHVakCWVsMG-44" value="&lt;code style=&quot;color: rgb(0, 0, 0);&quot;&gt;ID_Partido&lt;/code&gt;&lt;span style=&quot;color: rgb(0, 0, 0);&quot;&gt;&amp;nbsp;&lt;/span&gt;&lt;code style=&quot;color: rgb(0, 0, 0);&quot;&gt;INT PRIMARY KEY&lt;/code&gt;&lt;div style=&quot;color: rgb(0, 0, 0);&quot;&gt;&lt;code&gt;&lt;code&gt;Sigla&lt;/code&gt;&amp;nbsp;&lt;code&gt;VARCHAR(10)&lt;/code&gt;&lt;/code&gt;&lt;/div&gt;&lt;div style=&quot;color: rgb(0, 0, 0);&quot;&gt;&lt;code&gt;&lt;code&gt;&lt;code&gt;Nome&lt;/code&gt;&amp;nbsp;&lt;code&gt;VARCHAR(100)&lt;/code&gt;&lt;/code&gt;&lt;/code&gt;&lt;/div&gt;" style="align=left;strokeColor=none;fillColor=none;spacingLeft=4;spacingRight=4;fontSize=12;verticalAlign=top;resizable=0;rotatable=0;part=1;html=1;whiteSpace=wrap;labelBackgroundColor=none;fontColor=#143642;" parent="ro1BlrJvYzHVakCWVsMG-43" vertex="1">
          <mxGeometry y="50" width="160" height="70" as="geometry" />
        </mxCell>
        <mxCell id="ro1BlrJvYzHVakCWVsMG-46" value="DimLegislatura" style="swimlane;childLayout=stackLayout;horizontal=1;startSize=50;horizontalStack=0;rounded=1;fontSize=14;fontStyle=0;strokeWidth=2;resizeParent=0;resizeLast=1;shadow=0;dashed=0;align=center;arcSize=4;whiteSpace=wrap;html=1;labelBackgroundColor=none;fillColor=#FAE5C7;strokeColor=#0F8B8D;fontColor=#143642;" parent="1" vertex="1">
          <mxGeometry x="1250" y="100" width="160" height="120" as="geometry" />
        </mxCell>
        <mxCell id="ro1BlrJvYzHVakCWVsMG-47" value="&lt;code style=&quot;color: rgb(0, 0, 0);&quot;&gt;ID_Legislatura&lt;/code&gt;&lt;span style=&quot;color: rgb(0, 0, 0);&quot;&gt;&amp;nbsp;&lt;/span&gt;&lt;code style=&quot;color: rgb(0, 0, 0);&quot;&gt;INT PRIMARY KEY&lt;/code&gt;&lt;div style=&quot;color: rgb(0, 0, 0);&quot;&gt;&lt;code&gt;&lt;code&gt;AnoInicio&lt;/code&gt;&amp;nbsp;&lt;code&gt;INT&lt;/code&gt;&lt;/code&gt;&lt;/div&gt;&lt;div style=&quot;color: rgb(0, 0, 0);&quot;&gt;&lt;code&gt;&lt;code&gt;&lt;code&gt;AnoFim&lt;/code&gt;&amp;nbsp;&lt;code&gt;INT&lt;/code&gt;&lt;/code&gt;&lt;/code&gt;&lt;/div&gt;" style="align=left;strokeColor=none;fillColor=none;spacingLeft=4;spacingRight=4;fontSize=12;verticalAlign=top;resizable=0;rotatable=0;part=1;html=1;whiteSpace=wrap;labelBackgroundColor=none;fontColor=#143642;" parent="ro1BlrJvYzHVakCWVsMG-46" vertex="1">
          <mxGeometry y="50" width="160" height="70" as="geometry" />
        </mxCell>
        <mxCell id="ro1BlrJvYzHVakCWVsMG-48" value="DimVotacao" style="swimlane;childLayout=stackLayout;horizontal=1;startSize=50;horizontalStack=0;rounded=1;fontSize=14;fontStyle=0;strokeWidth=2;resizeParent=0;resizeLast=1;shadow=0;dashed=0;align=center;arcSize=4;whiteSpace=wrap;html=1;labelBackgroundColor=none;fillColor=#FAE5C7;strokeColor=#0F8B8D;fontColor=#143642;" parent="1" vertex="1">
          <mxGeometry x="840" y="660" width="200" height="110" as="geometry" />
        </mxCell>
        <mxCell id="ro1BlrJvYzHVakCWVsMG-49" value="&lt;code style=&quot;color: rgb(0, 0, 0);&quot;&gt;ID_Votacao&lt;/code&gt;&lt;span style=&quot;color: rgb(0, 0, 0);&quot;&gt;&amp;nbsp;&lt;/span&gt;&lt;code style=&quot;color: rgb(0, 0, 0);&quot;&gt;INT PRIMARY KEY&lt;/code&gt;&lt;div style=&quot;color: rgb(0, 0, 0);&quot;&gt;&lt;code&gt;&lt;code&gt;DescricaoVotacao&lt;/code&gt;&amp;nbsp;&lt;code&gt;VARCHAR(255)&lt;/code&gt;&lt;/code&gt;&lt;/div&gt;&lt;div style=&quot;color: rgb(0, 0, 0);&quot;&gt;&lt;code&gt;&lt;code&gt;&lt;code&gt;Tema&lt;/code&gt;&amp;nbsp;&lt;code&gt;VARCHAR(255)&lt;/code&gt;&lt;/code&gt;&lt;/code&gt;&lt;/div&gt;" style="align=left;strokeColor=none;fillColor=none;spacingLeft=4;spacingRight=4;fontSize=12;verticalAlign=top;resizable=0;rotatable=0;part=1;html=1;whiteSpace=wrap;labelBackgroundColor=none;fontColor=#143642;" parent="ro1BlrJvYzHVakCWVsMG-48" vertex="1">
          <mxGeometry y="50" width="200" height="60" as="geometry" />
        </mxCell>
        <mxCell id="ro1BlrJvYzHVakCWVsMG-52" value="" style="edgeStyle=entityRelationEdgeStyle;fontSize=12;html=1;endArrow=ERoneToMany;rounded=0;exitX=0;exitY=0;exitDx=0;exitDy=0;entryX=0.984;entryY=0.136;entryDx=0;entryDy=0;labelBackgroundColor=none;strokeColor=#A8201A;fontColor=default;entryPerimeter=0;" parent="1" source="ro1BlrJvYzHVakCWVsMG-42" target="ro1BlrJvYzHVakCWVsMG-20" edge="1">
          <mxGeometry width="100" height="100" relative="1" as="geometry">
            <mxPoint x="1320" y="470" as="sourcePoint" />
            <mxPoint x="1420" y="370" as="targetPoint" />
          </mxGeometry>
        </mxCell>
        <mxCell id="ro1BlrJvYzHVakCWVsMG-53" value="" style="fontSize=12;html=1;endArrow=ERoneToMany;rounded=0;horizontal=1;labelPosition=center;verticalLabelPosition=middle;align=center;verticalAlign=middle;entryX=0.5;entryY=0;entryDx=0;entryDy=0;exitX=0.5;exitY=1;exitDx=0;exitDy=0;labelBackgroundColor=none;strokeColor=#A8201A;fontColor=default;" parent="1" source="ro1BlrJvYzHVakCWVsMG-32" target="ro1BlrJvYzHVakCWVsMG-19" edge="1">
          <mxGeometry width="100" height="100" relative="1" as="geometry">
            <mxPoint x="1380" y="270" as="sourcePoint" />
            <mxPoint x="1380" y="440" as="targetPoint" />
            <Array as="points" />
          </mxGeometry>
        </mxCell>
        <mxCell id="ro1BlrJvYzHVakCWVsMG-59" value="" style="edgeStyle=entityRelationEdgeStyle;fontSize=12;html=1;endArrow=ERoneToMany;rounded=0;entryX=0;entryY=0;entryDx=0;entryDy=0;exitX=1;exitY=0;exitDx=0;exitDy=0;labelBackgroundColor=none;strokeColor=#A8201A;fontColor=default;" parent="1" source="ro1BlrJvYzHVakCWVsMG-40" target="ro1BlrJvYzHVakCWVsMG-20" edge="1">
          <mxGeometry width="100" height="100" relative="1" as="geometry">
            <mxPoint x="877.5" y="455" as="sourcePoint" />
            <mxPoint x="1050" y="455" as="targetPoint" />
            <Array as="points">
              <mxPoint x="970" y="390" />
              <mxPoint x="960" y="480" />
              <mxPoint x="950" y="500" />
            </Array>
          </mxGeometry>
        </mxCell>
        <mxCell id="ro1BlrJvYzHVakCWVsMG-63" value="" style="edgeStyle=entityRelationEdgeStyle;fontSize=12;html=1;endArrow=ERoneToMany;rounded=0;entryX=1;entryY=0.147;entryDx=0;entryDy=0;exitX=0;exitY=0;exitDx=0;exitDy=0;entryPerimeter=0;labelBackgroundColor=none;strokeColor=#A8201A;fontColor=default;" parent="1" source="ro1BlrJvYzHVakCWVsMG-24" target="ro1BlrJvYzHVakCWVsMG-19" edge="1">
          <mxGeometry width="100" height="100" relative="1" as="geometry">
            <mxPoint x="1020" y="730" as="sourcePoint" />
            <mxPoint x="1086.96" y="600" as="targetPoint" />
            <Array as="points">
              <mxPoint x="1040" y="789" />
              <mxPoint x="896.96" y="635" />
              <mxPoint x="1026.96" y="675" />
              <mxPoint x="906.96" y="605" />
              <mxPoint x="946.96" y="625" />
              <mxPoint x="1526.96" y="615" />
            </Array>
          </mxGeometry>
        </mxCell>
        <mxCell id="ro1BlrJvYzHVakCWVsMG-67" value="" style="edgeStyle=entityRelationEdgeStyle;fontSize=12;html=1;endArrow=ERoneToMany;rounded=0;entryX=0;entryY=0.75;entryDx=0;entryDy=0;labelBackgroundColor=none;strokeColor=#A8201A;fontColor=default;exitX=0.5;exitY=0;exitDx=0;exitDy=0;" parent="1" source="ro1BlrJvYzHVakCWVsMG-48" target="ro1BlrJvYzHVakCWVsMG-19" edge="1">
          <mxGeometry width="100" height="100" relative="1" as="geometry">
            <mxPoint x="898" y="700" as="sourcePoint" />
            <mxPoint x="1050" y="930" as="targetPoint" />
            <Array as="points">
              <mxPoint x="898" y="670" />
              <mxPoint x="890" y="620" />
            </Array>
          </mxGeometry>
        </mxCell>
        <mxCell id="ro1BlrJvYzHVakCWVsMG-69" value="" style="edgeStyle=entityRelationEdgeStyle;fontSize=12;html=1;endArrow=none;rounded=0;labelBackgroundColor=none;strokeColor=#A8201A;fontColor=default;startArrow=ERoneToMany;startFill=0;endFill=0;entryX=0.5;entryY=0;entryDx=0;entryDy=0;exitX=1;exitY=0.5;exitDx=0;exitDy=0;" parent="1" source="ro1BlrJvYzHVakCWVsMG-20" target="ro1BlrJvYzHVakCWVsMG-29" edge="1">
          <mxGeometry width="100" height="100" relative="1" as="geometry">
            <mxPoint x="1240" y="580" as="sourcePoint" />
            <mxPoint x="1520" y="620" as="targetPoint" />
          </mxGeometry>
        </mxCell>
        <mxCell id="ro1BlrJvYzHVakCWVsMG-70" value="" style="edgeStyle=entityRelationEdgeStyle;fontSize=12;html=1;endArrow=ERoneToMany;rounded=0;strokeColor=#A8201A;fontColor=#143642;fillColor=#FAE5C7;exitX=0.5;exitY=1;exitDx=0;exitDy=0;entryX=0;entryY=0.438;entryDx=0;entryDy=0;entryPerimeter=0;" parent="1" source="ro1BlrJvYzHVakCWVsMG-49" edge="1" target="ro1BlrJvYzHVakCWVsMG-22">
          <mxGeometry width="100" height="100" relative="1" as="geometry">
            <mxPoint x="980" y="920" as="sourcePoint" />
            <mxPoint x="1080" y="820" as="targetPoint" />
          </mxGeometry>
        </mxCell>
        <mxCell id="ro1BlrJvYzHVakCWVsMG-71" value="" style="edgeStyle=entityRelationEdgeStyle;fontSize=12;html=1;endArrow=none;rounded=0;strokeColor=#A8201A;fontColor=#143642;fillColor=#FAE5C7;startArrow=ERoneToMany;startFill=0;endFill=0;exitX=1;exitY=0;exitDx=0;exitDy=0;entryX=0;entryY=0;entryDx=0;entryDy=0;" parent="1" source="ro1BlrJvYzHVakCWVsMG-22" target="ro1BlrJvYzHVakCWVsMG-30" edge="1">
          <mxGeometry width="100" height="100" relative="1" as="geometry">
            <mxPoint x="1250" y="960" as="sourcePoint" />
            <mxPoint x="1350" y="860" as="targetPoint" />
          </mxGeometry>
        </mxCell>
        <mxCell id="ro1BlrJvYzHVakCWVsMG-72" value="" style="edgeStyle=orthogonalEdgeStyle;fontSize=12;html=1;endArrow=none;rounded=0;strokeColor=#A8201A;fontColor=#143642;fillColor=#FAE5C7;startArrow=ERoneToMany;startFill=0;endFill=0;exitX=1;exitY=0.5;exitDx=0;exitDy=0;entryX=0.5;entryY=1;entryDx=0;entryDy=0;jumpStyle=none;jumpSize=6;" parent="1" source="ro1BlrJvYzHVakCWVsMG-22" target="ro1BlrJvYzHVakCWVsMG-42" edge="1">
          <mxGeometry width="100" height="100" relative="1" as="geometry">
            <mxPoint x="1280" y="839.5" as="sourcePoint" />
            <mxPoint x="1607.5" y="654.5" as="targetPoint" />
          </mxGeometry>
        </mxCell>
        <mxCell id="ro1BlrJvYzHVakCWVsMG-73" value="" style="edgeStyle=orthogonalEdgeStyle;fontSize=12;html=1;endArrow=ERoneToMany;rounded=0;strokeColor=#A8201A;fontColor=#143642;fillColor=#FAE5C7;exitX=1.013;exitY=0.358;exitDx=0;exitDy=0;exitPerimeter=0;entryX=0.75;entryY=0;entryDx=0;entryDy=0;" parent="1" source="ro1BlrJvYzHVakCWVsMG-23" target="ro1BlrJvYzHVakCWVsMG-41" edge="1">
          <mxGeometry width="100" height="100" relative="1" as="geometry">
            <mxPoint x="1690" y="440" as="sourcePoint" />
            <mxPoint x="1690" y="450" as="targetPoint" />
            <Array as="points">
              <mxPoint x="1700" y="363" />
            </Array>
          </mxGeometry>
        </mxCell>
        <mxCell id="ro1BlrJvYzHVakCWVsMG-74" value="" style="edgeStyle=orthogonalEdgeStyle;fontSize=12;html=1;endArrow=none;rounded=0;strokeColor=#A8201A;fontColor=#143642;fillColor=#FAE5C7;exitX=0.683;exitY=-0.025;exitDx=0;exitDy=0;exitPerimeter=0;startArrow=ERoneToMany;startFill=0;endFill=0;entryX=0;entryY=0;entryDx=0;entryDy=0;" parent="1" source="ro1BlrJvYzHVakCWVsMG-23" edge="1" target="ro1BlrJvYzHVakCWVsMG-44">
          <mxGeometry width="100" height="100" relative="1" as="geometry">
            <mxPoint x="1510" y="260" as="sourcePoint" />
            <mxPoint x="1557" y="149" as="targetPoint" />
            <Array as="points">
              <mxPoint x="1547" y="149" />
              <mxPoint x="1550" y="149" />
              <mxPoint x="1550" y="150" />
            </Array>
          </mxGeometry>
        </mxCell>
        <mxCell id="ro1BlrJvYzHVakCWVsMG-75" value="" style="edgeStyle=orthogonalEdgeStyle;fontSize=12;html=1;endArrow=none;rounded=0;strokeColor=#A8201A;fontColor=#143642;fillColor=#FAE5C7;exitX=0.683;exitY=-0.025;exitDx=0;exitDy=0;exitPerimeter=0;startArrow=ERoneToMany;startFill=0;endFill=0;entryX=1;entryY=0;entryDx=0;entryDy=0;" parent="1" target="ro1BlrJvYzHVakCWVsMG-47" edge="1">
          <mxGeometry width="100" height="100" relative="1" as="geometry">
            <mxPoint x="1430" y="320" as="sourcePoint" />
            <mxPoint x="1480" y="152" as="targetPoint" />
            <Array as="points">
              <mxPoint x="1430" y="150" />
            </Array>
          </mxGeometry>
        </mxCell>
        <mxCell id="ro1BlrJvYzHVakCWVsMG-76" value="" style="fontSize=12;html=1;endArrow=ERoneToMany;rounded=0;entryX=0;entryY=0;entryDx=0;entryDy=0;exitX=1;exitY=0;exitDx=0;exitDy=0;labelBackgroundColor=none;strokeColor=#A8201A;fontColor=default;" parent="1" source="ro1BlrJvYzHVakCWVsMG-38" target="ro1BlrJvYzHVakCWVsMG-32" edge="1">
          <mxGeometry width="100" height="100" relative="1" as="geometry">
            <mxPoint x="1055" y="230" as="sourcePoint" />
            <mxPoint x="1170" y="200" as="targetPoint" />
          </mxGeometry>
        </mxCell>
      </root>
    </mxGraphModel>
  </diagram>
</mxfile>
